<?xml version="1.0" encoding="UTF-8" standalone="no"?>
<svg
   viewBox="0 0 900 320"
   version="1.1"
   id="svg11"
   sodipodi:docname="SUSE_NetBox_Pos.svg"
   inkscape:version="1.4 (unknown)"
   width="900"
   height="320"
   xmlns:inkscape="http://www.inkscape.org/namespaces/inkscape"
   xmlns:sodipodi="http://sodipodi.sourceforge.net/DTD/sodipodi-0.dtd"
   xmlns="http://www.w3.org/2000/svg"
   xmlns:svg="http://www.w3.org/2000/svg">
  <defs
     id="defs11" />
  <sodipodi:namedview
     id="namedview11"
     pagecolor="#ffffff"
     bordercolor="#000000"
     borderopacity="0.25"
     inkscape:showpageshadow="2"
     inkscape:pageopacity="0.0"
     inkscape:pagecheckerboard="0"
     inkscape:deskcolor="#d1d1d1"
     showgrid="false"
     inkscape:zoom="1.1217285"
     inkscape:cx="555.83861"
     inkscape:cy="69.981284"
     inkscape:window-width="1896"
     inkscape:window-height="1002"
     inkscape:window-x="0"
     inkscape:window-y="0"
     inkscape:window-maximized="0"
     inkscape:current-layer="svg11" />
  <g
     fill="#9cc8f8"
     stroke="#9cc8f8"
     id="g6"
     transform="translate(570.54805)">
    <circle
       cx="37"
       cy="284"
       r="23"
       id="circle1" />
    <circle
       cx="101"
       cy="37"
       r="23"
       id="circle2" />
    <circle
       cx="101"
       cy="220"
       r="23"
       id="circle3" />
    <circle
       cx="284"
       cy="220"
       r="23"
       id="circle4" />
    <rect
       x="93"
       y="37"
       width="16"
       height="180"
       id="rect4" />
    <rect
       x="101"
       y="212"
       width="180"
       height="16"
       id="rect5" />
    <rect
       x="93"
       y="212"
       width="16"
       height="90"
       transform="rotate(45,101,220)"
       id="rect6" />
  </g>
  <g
     fill="#1685fc"
     stroke="#1685fc"
     id="g11"
     style="display:inline"
     transform="translate(570.54805)">
    <circle
       cx="284"
       cy="37"
       r="23"
       id="circle6" />
    <circle
       cx="37"
       cy="101"
       r="23"
       id="circle7" />
    <circle
       cx="220"
       cy="101"
       r="23"
       id="circle8" />
    <circle
       cx="220"
       cy="284"
       r="23"
       id="circle9" />
    <rect
       x="37"
       y="93"
       width="180"
       height="16"
       id="rect9" />
    <rect
       x="212"
       y="101"
       width="16"
       height="180"
       id="rect10" />
    <rect
       x="212"
       y="93"
       width="16"
       height="90"
       transform="rotate(-135,220,101)"
       id="rect11" />
  </g>
  <g
     id="g1"
     transform="matrix(6.8650672,0,0,6.8650672,-75.051025,-61.828182)">
    <g
       id="Layer_1">
      <path
         d="m 86.108,27.161 c -0.406,0.268 -0.948,0.268 -1.352,0 -0.665,-0.442 -0.73,-1.364 -0.194,-1.897 0.476,-0.493 1.263,-0.493 1.739,-10e-4 0.534,0.534 0.47,1.456 -0.193,1.898 m 1.935,-2.688 c 0.773,3.284 -2.178,6.237 -5.463,5.466 -1.672,-0.393 -3,-1.72 -3.391,-3.391 -0.771,-3.282 2.179,-6.233 5.462,-5.463 1.672,0.39 2.999,1.716 3.392,3.388 M 65.932,42.135 c 0.376,0.54 0.686,1.06 0.863,1.581 0.122,0.37 0.282,0.858 0.646,1.054 0.022,0.011 0.038,0.021 0.062,0.028 0.67,0.243 2.392,0.202 2.392,0.202 h 3.169 c 0.27,0.004 2.651,-0.002 2.591,-0.269 -0.286,-1.273 -1.759,-1.501 -2.88,-2.166 -1.033,-0.616 -2.012,-1.315 -2.457,-2.516 -0.232,-0.62 -0.093,-2.05 0.306,-2.571 0.291,-0.377 0.719,-0.626 1.18,-0.728 0.511,-0.109 1.04,-0.015 1.551,0.037 0.63,0.065 1.253,0.178 1.881,0.256 1.213,0.158 2.436,0.221 3.659,0.189 2.017,-0.056 4.037,-0.378 5.951,-1.03 1.334,-0.448 2.65,-1.054 3.784,-1.897 1.29,-0.958 0.951,-0.869 -0.356,-0.735 -1.567,0.161 -3.148,0.184 -4.719,0.091 -1.465,-0.085 -2.911,-0.257 -4.237,-0.939 -1.044,-0.539 -1.941,-1.078 -2.769,-1.913 -0.123,-0.126 -0.202,-0.495 0.026,-0.73 0.219,-0.228 0.687,-0.096 0.828,0.026 1.445,1.207 3.6,2.201 5.829,2.309 1.206,0.06 2.38,0.083 3.585,0.03 0.603,-0.028 1.515,-0.024 2.119,-0.03 0.312,-0.004 1.163,0.086 1.322,-0.244 0.049,-0.097 0.044,-0.208 0.04,-0.316 -0.178,-4.826 -0.534,-10.269 -5.584,-12.576 -3.767,-1.723 -9.417,-4.392 -11.802,-5.499 -0.554,-0.262 -1.201,0.153 -1.201,0.769 0,1.612 0.082,3.928 0.083,6.036 C 70.651,19.42 68.726,18.685 67.258,18.011 65.592,17.247 63.873,16.599 62.123,16.054 58.6,14.963 54.954,14.291 51.287,13.927 47.129,13.512 42.9,13.711 38.804,14.557 c -6.745,1.398 -13.373,4.642 -18.405,9.384 -3.09,2.911 -5.513,7.048 -5.677,11.246 -0.233,5.944 1.431,9.134 4.491,12.424 4.88,5.242 15.383,5.975 19.636,-0.241 1.914,-2.798 2.33,-6.593 0.941,-9.685 -1.388,-3.092 -4.581,-5.326 -7.968,-5.44 -2.627,-0.087 -5.425,1.25 -6.431,3.679 -0.77,1.854 -0.332,4.146 1.067,5.586 0.545,0.562 1.283,1.022 2.09,0.842 0.474,-0.106 0.871,-0.463 0.943,-0.945 0.106,-0.71 -0.517,-1.172 -0.899,-1.718 -0.691,-0.985 -0.551,-2.464 0.313,-3.301 0.731,-0.707 1.812,-0.915 2.828,-0.913 0.945,0.002 1.913,0.171 2.729,0.649 1.148,0.674 1.91,1.91 2.173,3.216 0.788,3.903 -2.385,7.074 -6.688,7.323 -2.202,0.131 -4.442,-0.448 -6.16,-1.83 -4.35,-3.5 -5.416,-10.655 -0.442,-14.474 4.72,-3.625 10.681,-2.69 14.193,-0.807 2.813,1.507 4.91,3.973 6.496,6.7 0.798,1.37 1.477,2.803 2.107,4.258 0.607,1.399 1.173,2.809 2.386,3.835 C 49.33,45.024 50.322,45 51.373,45 h 6.006 c 0.815,0 0.617,-0.544 0.264,-0.904 -0.796,-0.814 -1.941,-0.998 -2.999,-1.289 -2.42,-0.666 -2.174,-3.87 -1.505,-3.87 2.164,0 2.233,0.064 4.129,0.04 2.736,-0.038 3.563,-0.197 5.704,0.595 1.143,0.423 2.243,1.542 2.96,2.563"
         fill="#30ba78"
         id="path1" />
    </g>
  </g>
</svg>
